<?xml version="1.0" standalone="no"?>
<!DOCTYPE svg PUBLIC "-//W3C//DTD SVG 20010904//EN"
 "http://www.w3.org/TR/2001/REC-SVG-20010904/DTD/svg10.dtd">
<svg version="1.0" xmlns="http://www.w3.org/2000/svg"
 width="512.000000pt" height="512.000000pt" viewBox="0 0 512.000000 512.000000"
 preserveAspectRatio="xMidYMid meet">

<g transform="translate(0.000000,512.000000) scale(0.100000,-0.100000)"
fill="#f0e6df" stroke="none">
<path d="M2216 4980 c-16 -77 -34 -146 -40 -154 -6 -7 -36 -21 -66 -30 -30
-10 -96 -37 -147 -61 l-92 -43 -128 84 -128 83 -219 -218 -219 -219 41 -97
c23 -53 42 -100 42 -104 0 -5 -33 -11 -73 -14 -161 -14 -306 -93 -404 -222
-101 -132 -127 -235 -120 -470 3 -104 10 -176 20 -206 32 -97 80 -174 153
-248 41 -40 74 -81 74 -90 0 -13 -25 -23 -114 -45 l-115 -28 -207 121 -206
121 -134 0 -134 0 2 -857 3 -856 400 -134 400 -133 85 2 c81 3 84 4 90 28 3
14 10 25 16 25 5 0 61 -31 125 -68 114 -69 115 -69 126 -118 24 -99 111 -184
202 -196 36 -5 39 -8 44 -45 12 -90 97 -177 195 -200 46 -11 52 -16 52 -38 0
-15 12 -50 27 -79 31 -62 89 -108 165 -131 49 -15 51 -17 63 -63 17 -69 61
-125 124 -161 69 -38 162 -42 226 -9 l40 21 45 -40 c62 -55 113 -79 180 -85
130 -12 243 69 273 197 11 47 13 49 53 55 90 13 175 100 196 201 8 39 13 44
36 44 92 1 211 120 212 212 0 22 6 29 28 34 62 13 112 37 146 70 48 46 67 85
73 151 l6 54 743 372 744 372 0 602 0 603 -96 0 -96 0 -134 -71 -135 -71 -47
20 c-26 11 -127 39 -224 63 -142 35 -178 47 -178 60 0 9 33 50 74 90 74 74
121 152 153 248 9 29 17 102 20 196 6 183 -8 263 -68 384 -93 189 -297 321
-495 321 l-43 0 46 106 46 106 -219 218 -219 219 -128 -83 -128 -84 -92 43
c-51 24 -117 51 -147 61 -30 9 -60 23 -66 30 -6 8 -24 77 -40 154 l-28 140
-316 0 -316 0 -28 -140z m554 -163 c15 -70 29 -129 31 -130 2 -2 49 -16 104
-32 55 -16 156 -57 224 -92 141 -71 117 -73 253 19 48 32 93 58 100 58 18 0
258 -242 258 -260 -1 -8 -20 -60 -44 -115 -39 -92 -46 -102 -87 -124 -24 -13
-66 -42 -93 -64 -42 -35 -50 -38 -58 -24 -25 46 -137 174 -195 222 -159 135
-329 216 -527 250 -374 64 -767 -84 -1004 -380 -34 -41 -65 -83 -70 -92 -9
-15 -14 -14 -47 13 -20 16 -62 45 -93 65 -53 33 -59 41 -99 134 -24 54 -43
105 -43 114 0 19 239 261 258 261 7 0 52 -26 100 -58 136 -92 112 -90 253 -19
68 35 169 76 224 92 55 16 102 30 104 31 2 2 14 54 28 116 13 62 26 121 29
131 5 16 21 17 186 15 l181 -3 27 -128z m-40 -459 c244 -46 461 -196 604 -417
l28 -43 -29 -87 c-26 -81 -28 -96 -28 -256 1 -195 13 -258 72 -365 20 -36 67
-95 105 -133 37 -37 68 -75 68 -85 0 -14 -29 -25 -165 -58 l-165 -41 -165 41
c-137 34 -165 44 -165 59 0 10 28 44 63 76 73 69 129 158 160 256 19 61 22 92
22 240 0 136 -4 182 -18 230 -65 212 -231 373 -433 421 -90 21 -225 14 -311
-16 -169 -59 -308 -201 -364 -372 -22 -66 -24 -90 -24 -253 0 -158 3 -188 22
-250 31 -98 87 -187 161 -256 34 -32 62 -66 62 -76 0 -15 -28 -25 -165 -59
l-165 -41 -165 41 c-131 32 -165 44 -165 57 0 9 31 48 68 85 38 38 85 98 105
134 59 106 72 170 71 360 0 156 -2 170 -30 251 l-29 86 30 50 c195 322 574
491 945 421z m-1352 -340 c101 -38 200 -137 243 -245 22 -53 24 -73 24 -233
l0 -175 -34 -69 c-37 -77 -103 -149 -169 -186 l-43 -24 3 -130 3 -130 135 -34
c74 -18 136 -35 138 -37 2 -2 -7 -19 -21 -37 -54 -72 -84 -162 -90 -268 l-2
-44 -120 -28 c-66 -15 -122 -27 -125 -28 -3 0 -4 39 -2 88 l3 87 -214 125
c-119 69 -210 128 -204 131 7 4 47 15 90 25 l77 18 0 132 0 132 -49 32 c-68
43 -117 100 -155 179 -30 65 -31 70 -34 233 -3 138 -1 177 14 220 25 78 59
132 117 184 116 105 270 135 415 82z m1307 5 c135 -47 243 -170 275 -313 7
-34 11 -109 8 -200 -3 -134 -5 -150 -31 -204 -36 -79 -87 -139 -153 -183 l-54
-36 0 -131 0 -131 238 -59 c252 -63 314 -86 356 -137 54 -64 59 -89 60 -289
l1 -185 -37 -3 c-24 -2 -131 23 -300 71 -145 41 -286 78 -313 82 -28 4 -142
35 -255 70 -251 78 -265 82 -367 94 -77 10 -201 4 -336 -15 l-48 -7 7 44 c15
93 58 156 133 193 25 13 153 50 284 82 l237 59 0 131 0 132 -49 32 c-68 43
-117 100 -155 179 l-31 66 0 186 0 185 38 76 c92 187 302 277 492 211z m1320
0 c104 -33 187 -109 243 -221 l37 -76 0 -180 0 -181 -31 -66 c-38 -79 -87
-136 -155 -179 l-49 -32 0 -132 0 -132 200 -49 c152 -37 197 -52 187 -61 -13
-12 -872 -464 -881 -464 -3 0 -6 60 -6 133 0 171 -20 245 -87 335 -14 18 -23
35 -21 37 2 2 64 19 138 37 l135 34 3 130 3 130 -43 24 c-66 37 -132 109 -169
186 -32 67 -33 73 -37 219 -6 222 20 310 124 411 113 110 257 144 409 97z
m-3482 -1224 c160 -94 293 -171 294 -172 3 -3 -294 -1187 -299 -1192 -2 -3
-82 21 -176 53 l-172 57 0 712 0 713 30 0 c21 0 119 -52 323 -171z m4427 -472
l0 -462 -693 -346 -693 -347 -364 329 c-419 378 -443 394 -570 394 -93 0 -116
-9 -299 -120 -200 -120 -215 -127 -256 -119 -72 13 -112 94 -81 167 14 34 32
45 283 170 280 140 348 165 426 152 23 -4 167 -43 320 -86 189 -54 294 -79
330 -79 49 0 94 23 817 404 421 223 768 405 773 405 4 1 7 -207 7 -462z
m-3797 103 c6 -5 -296 -1094 -307 -1107 -5 -6 -166 52 -166 59 0 9 278 1124
285 1145 3 8 34 -5 92 -39 48 -28 92 -54 96 -58z m982 -130 c69 -11 235 -60
235 -69 0 -4 -95 -54 -212 -111 -300 -148 -333 -182 -333 -345 0 -106 16 -147
82 -212 50 -48 115 -73 192 -73 68 0 106 17 296 131 77 47 153 90 168 97 36
16 98 15 134 0 42 -19 735 -643 756 -681 33 -61 -9 -127 -82 -127 -35 0 -59
17 -272 195 -129 107 -236 194 -239 194 -6 0 -100 -115 -100 -122 0 -3 96 -85
213 -182 214 -178 247 -211 247 -253 0 -36 -52 -82 -92 -82 -42 0 -40 -1 -298
213 l-215 179 -52 -58 c-29 -33 -53 -61 -53 -64 0 -3 97 -86 216 -185 119 -99
222 -189 230 -200 22 -32 17 -78 -12 -106 -35 -33 -92 -31 -141 7 -75 56 -203
166 -203 175 0 4 -19 26 -42 48 -39 38 -109 71 -150 71 -13 0 -18 8 -18 28 0
15 -12 52 -27 81 -31 62 -89 108 -165 131 -49 15 -51 17 -63 62 -6 26 -24 65
-38 87 -29 43 -117 101 -154 101 -30 0 -49 22 -57 67 -17 99 -133 187 -246
186 -89 -1 -139 -29 -253 -143 l-99 -99 -120 71 c-65 39 -121 75 -124 79 -4 7
209 765 218 774 4 4 560 128 618 138 49 8 196 7 255 -3z m-452 -992 c34 -18
46 -40 47 -82 0 -35 -8 -46 -82 -123 -46 -47 -96 -91 -111 -100 -59 -30 -129
14 -129 83 0 34 9 46 99 136 104 102 126 113 176 86z m265 -258 c25 -24 37
-60 28 -92 -3 -13 -48 -65 -99 -116 -85 -85 -98 -94 -131 -94 -64 0 -106 57
-86 117 7 20 47 68 100 119 81 78 93 86 128 86 25 0 46 -7 60 -20z m257 -262
c46 -55 32 -89 -88 -205 -78 -76 -88 -83 -125 -83 -33 0 -45 6 -66 31 -46 54
-37 80 62 182 119 123 164 138 217 75z m242 -240 c52 -49 39 -94 -60 -195
-106 -110 -148 -126 -206 -77 -25 21 -31 33 -31 65 0 36 8 47 80 123 114 118
161 136 217 84z m255 -243 c10 -11 18 -35 18 -54 0 -82 -89 -108 -168 -50 -23
17 -42 34 -42 38 0 4 13 20 30 36 16 16 42 46 56 67 l27 39 31 -28 c17 -15 39
-37 48 -48z"/>
</g>
</svg>
